<svg xmlns="http://www.w3.org/2000/svg" xmlns:svgjs="http://svgjs.com/svgjs" xmlns:xlink="http://www.w3.org/1999/xlink" width="288" height="288"><svg xmlns="http://www.w3.org/2000/svg" width="288" height="288" enable-background="new 0 0 28.968 28.967" viewBox="0 0 28.968 28.967"><path fill="#00b768" d="M11.169 15.384l-.711 1.854-.24-.012c.613.951 1.534 1.683 2.623 2.057l-.18-.554 1.603-1.164v-1.506l-1.343-.976L11.169 15.384zM16.393 11.184l-.847-1.662c-.343-.074-.697-.114-1.062-.114-.364 0-.719.041-1.062.114l-.846 1.662 1.047 1.566h1.721L16.393 11.184zM17.792 15.364l-1.726-.296-1.362.989v1.506l1.603 1.165-.18.554c1.088-.375 2.009-1.105 2.623-2.057l-.239.012L17.792 15.364z" class="color000 svgShape"/><path fill="#00b768" d="M28.912,9.985C28.06,1.777,18.9,1.902,14.483,5.863C10.066,1.902,0.907,1.777,0.055,9.986
			c-1.096,10.561,14.428,15.747,14.428,15.747S30.008,20.546,28.912,9.985z M14.483,20.002c-3.042,0-5.518-2.476-5.518-5.519
			s2.475-5.518,5.518-5.518s5.519,2.475,5.519,5.518S17.525,20.002,14.483,20.002z" class="color000 svgShape"/><path fill="#00b768" d="M12.733 14.667l.536-1.649-1.107-1.655-1.478-.234c-.637.721-1.072 1.622-1.218 2.617l.047-.03 1.533 1.243L12.733 14.667zM16.805 11.362l-1.107 1.655.53 1.63 1.711.294 1.517-1.227.046.03c-.146-.995-.58-1.896-1.218-2.616L16.805 11.362z" class="color000 svgShape"/></svg></svg>