<?xml version="1.0" encoding="utf-8"?>
<!-- Generator: Adobe Illustrator 24.0.2, SVG Export Plug-In . SVG Version: 6.00 Build 0)  -->
<svg version="1.1" id="Capa_1" xmlns:svgjs="http://svgjs.com/svgjs"
	 xmlns="http://www.w3.org/2000/svg" xmlns:xlink="http://www.w3.org/1999/xlink" x="0px" y="0px" viewBox="0 0 288 288"
	 style="enable-background:new 0 0 288 288;" xml:space="preserve">
<style type="text/css">
	.st0{fill:#00B768;}
</style>
<path class="st0" d="M113.7,179.3l-2,19.6l-2.3,0.5c8.4,7.5,19.1,12.2,30.5,12.9l-3.2-4.8l12.3-15.3l-3.9-14.4l-15.4-5.9
	L113.7,179.3z M152.9,125.4l-12.5-13.7c-3.5,0.2-7,0.7-10.5,1.7c-3.5,0.9-6.8,2.3-9.9,3.9l-3.8,18.1l14.1,12.3l16.5-4.5L152.9,125.4
	z M177.2,161.8l-17.3,1.7l-10.5,13l3.9,14.4l18.4,7l-0.3,5.8c9.5-6.4,16.4-15.8,19.8-26.6l-2.3,0.7L177.2,161.8z"/>
<path class="st0" d="M287.6,89.4C280.8-9.5,208-8,172.9,39.7C137.8-8,65-9.5,58.2,89.4C49.5,216.5,172.9,279,172.9,279
	S296.3,216.5,287.6,89.4z M172.9,210c-24.2,0-43.9-29.8-43.9-66.5s19.7-66.4,43.9-66.4s43.9,29.8,43.9,66.4S197.1,210,172.9,210z"/>
<path class="st0" d="M127.9,142.9l5.3-16.4l-11-16.5l-14.7-2.3c-6.3,7.2-10.7,16.1-12.1,26l0.5-0.3l15.2,12.4L127.9,142.9z
	 M168.4,110l-11,16.5l5.3,16.2l17,2.9l15.1-12.2l0.5,0.3c-1.5-9.9-5.8-18.9-12.1-26L168.4,110z"/>
</svg>
