<?xml version="1.0" encoding="utf-8"?>
<!-- Generator: Adobe Illustrator 24.0.2, SVG Export Plug-In . SVG Version: 6.00 Build 0)  -->
<svg version="1.1" id="Layer_1" xmlns="http://www.w3.org/2000/svg" xmlns:xlink="http://www.w3.org/1999/xlink" x="0px" y="0px"
	 viewBox="0 0 1500 1500" style="enable-background:new 0 0 1500 1500;" xml:space="preserve">
<style type="text/css">
	.st0{fill:#FEC45B;}
	.st1{fill:#285286;}
	.st2{fill:#FFFFFF;}
	.st3{fill:#8AC0E2;}
</style>
<g>
	<path class="st0" d="M648.1,1457.1c0.2-10.5,5.1-19.2,10.8-27.5c8.5-12.3,17.3-24.4,25.5-38c-40.5,19.1-82,31.9-128.4,24.1
		c6-11.2,14.1-19.8,24.4-26.3c11.7-7.3,23.9-13.9,35.8-20.9c1.7-1,4.1-2.5,4.3-4c0.3-2.8-3-3.3-5-3.9c-17.2-5.1-34.4-10-51.7-14.8
		c-4.1-1.1-8.1,0.9-12.2,1.3c-67.7,6.4-133.8-1.2-198.2-22.8c-3-1-5.9-2.6-8.8-4c-1.5-0.8-3-1.8-4.6-2.8c8.1-5.2,19.1-7.9,32.3-9.3
		c11.2-1.2,22.3-0.7,36-1.3c-6.7-4.3-11.7-7.5-16.7-10.6c-27.3-17.1-52.6-35.9-73.7-61c-12.5-14.8-28.8-26.7-40.9-42.4
		c-31.3-40.4-58.3-83.4-76.7-131.4c-2.6-6.7-5.5-13.5-4.1-22.2c10.3,5.5,19.1,11.7,26.4,19.8c7.2,8,14,16.4,22,25.7
		c1.6-9.4-0.9-17.1-1.6-24.7c-2.4-23.7-4.9-47.4-1.5-71.3c0.4-2.7-0.1-5.2-1.6-7.6c-21-33.4-31.4-70.8-40.3-108.7
		c-7.3-30.9-13-62.1-12.7-94.2c0.1-5.6,0.8-11.1,2.4-17.3c17.9,16.6,24.1,38.7,32.6,62c2.7-12,5-22,7.2-31.9
		c3.3-14.9,8.1-29.5,12.1-44.2c3.6-13.2,5.8-26-2.7-40.2c-20-33.3-29.2-71-37.4-108.8c-5.9-27.3-10.9-54.8-10.7-82.9
		c0-6.2,0.1-12.4,2.7-19c17.5,16,23.5,38,32.5,61.5c7.9-35.1,13.7-68,29.6-99.1c16.5,31.8,20,66,26.1,102.3
		c11.1-24.3,17.4-48.4,37.7-65.7c1.9,13.2-0.4,25-1.7,36.7c-4.9,42.7-12.6,84.9-27.8,125.3c-6.9,18.2-14.8,35.9-25.2,52.4
		c-2.3,3.7-2.8,7.4-3.3,11.5c-2.8,21.5,6.1,41,9.5,61.5c2.2,13.6,4.6,27.2,7.3,43.2c11.5-23.6,17.1-48.4,38.2-65.4
		c0.9,18.1-1.7,34.7-3.8,51.1c-4.9,38-12.6,75.3-26.2,111.3c-6.9,18.2-15,35.8-25.2,52.4c-5,8.2-4.4,23.8,1.3,31.4
		c10.8,14.4,19.1,30.4,27.5,46.2c2.9,5.4,5.7,10.9,9.8,18.8c3.8-26.7,1-52.3,15.2-75c3.6,6.6,4.2,13.5,6.1,20
		c1.9,6.8,3.1,13.7,4.7,20.6c9,40.6,14.5,81.6,13.4,123.3c-0.5,18.2-1.9,36.4-6.5,54.2c-1.7,6.7,0,11.2,4.3,16.5
		c8,9.7,16.9,14.1,30.1,14.3c19.3,0.2,38.3,5.5,57.3,9.4c1.4,0.3,2.8,0.3,6.1,0.6c-18.1-18.8-39.3-32.9-48.3-58.3
		c11.2,3,20.6,8.3,30.2,13c44.9,21.9,87.4,47.5,124.3,81.6c10.2,9.4,19.7,19.5,28,30.6c3.1,4.2,6.1,5.6,11.1,3.4
		c8.5-3.7,17.3-7,26.5-10.7c-12-14.5-22.9-28.8-28.9-46.1c-1.5-4.3-5-9.7-1.6-13.2c2.5-2.7,7.7,0.9,11.4,2
		c22.3,6.6,44.2,14.2,66.6,20.3c31.8,8.6,55.3,27.9,73.8,54.1c4.4,6.2,9.4,7.9,16.8,8.6c19.8,1.8,35-2.1,46.8-20.6
		c15.8-24.9,41.9-35.9,69.3-43.8c22-6.4,43.9-13.4,65.8-20c7.7-2.3,9-1.2,6.8,6.6c-5,17.9-15.3,33-26.9,47.2
		c-1.1,1.3-2.2,2.7-4.1,4.9c10.1,3.9,19.6,7.5,29,11.4c4.1,1.7,5.9-0.8,8-3.4c48.2-59.3,112.6-95.3,181-125.5c0.2-0.1,0.6,0,1.7,0
		c-3.8,12.5-11.7,22-20.1,31.2c-8.3,9-16.6,18-23.9,26.1c15.9-2.7,33.7-5.9,51.6-8.8c5.2-0.8,10.6-1.4,15.8-1.2
		c6.8,0.3,11.2-2.6,16.1-7.1c9.3-8.5,12.3-17,9.3-30c-7.6-33-6.7-66.6-3.4-100.1c3.5-35.8,10.7-70.9,19.8-105.6
		c0.4-1.7,1.1-3.3,2-5.9c14.8,22.7,12,48.3,15.5,75.1c6.8-12.6,12.4-23.4,18.4-33.9c4.9-8.7,9.9-17.4,15.6-25.6
		c10.5-15.2,11.1-26.1,1.9-41.9c-22.9-39.1-35.2-81.9-43.3-126.1c-4.5-24.6-7.7-49.4-9.1-74.3c-0.1-2.5,0-5.1,0-9.4
		c21,17.3,26.9,41.6,37.8,64.8c4-12.1,4.4-23.4,6.4-34.3c2.3-13,5-26,8.9-38.6c1.3-4,1.7-7.9,2-12.1c1.3-15.7-2.5-29.3-10.4-43.3
		c-22.6-39.9-33.7-83.8-40.9-128.7c-3.8-23.5-7-47.1-7.5-73c21.3,17.4,27.3,41.8,38.5,66c6.2-36.1,9.7-70.3,26.1-102.1
		c16,30.9,21.7,63.9,29.9,96.4c8.5-20.8,14.9-42.4,32.2-59.1c1.7,4.8,2.7,9.1,2.6,13.7c-2.5,72.3-17.2,141.6-52.4,205.6
		c-5.4,9.8-1.6,20.3,1.1,29.1c7.4,24.2,13.7,48.6,18.5,73.5c0.2,1.1,0.9,2.1,1.9,4.3c8-22.1,14.5-43.9,31.8-60.8
		c4.5,11.9,3.4,23.9,2.4,35.5c-4.7,52.1-16.3,102.7-35.4,151.4c-4.3,10.9-9.5,21.5-16,31.4c-1.6,2.5-3.3,4.9-2.8,8.1
		c4.5,31.6-0.6,62.8-3.9,94c-0.1,0.9-0.2,1.7-0.5,5c15.6-18.3,27.9-37.5,49.7-47c1.5,7.9-1.5,14.5-3.8,20.9
		c-14.4,39.6-36.1,75.3-60.1,109.6c-16.2,23.2-34,44.8-56.3,62.9c-11.2,9.1-18.7,22.5-30.3,31.9c-18.8,15.2-39.4,27.5-61.8,41.9
		c24.8,0.1,47.4-0.5,69.3,9.8c-12.8,8.7-26.9,12.8-41,16.2c-50.8,12.5-102.4,18.4-154.8,16c-3.8-0.2-7.6-0.7-11.4-1.4
		c-25.4-4.9-47.5,7.9-70.8,13.8c-6.3,1.6-3.5,4.6,0.1,6.7c11.9,7,24.1,13.6,35.9,20.8c10.5,6.4,18.5,15.2,25.3,26.7
		c-46.3,7.8-87.8-4.7-127.8-25c-0.4,0.7-0.9,1.4-1.3,2.1c6.2,8.6,12.6,17.1,18.6,25.9c8.1,11.8,17.7,23,18.3,38.4c-10,0-20,0-30,0
		c-2.6-1.3-3.5-3.7-4.3-6.3c-6.9-24.2-21-44.4-34.8-64.8c-9.2-13.5-21.5-16.7-36.4-16.2c-12.2,0.4-20.9,5.7-27.9,15.5
		c-14.5,20.4-28.5,41-35.4,65.5c-0.7,2.6-1.7,5-4.3,6.3C668.2,1457.1,658.2,1457.1,648.1,1457.1z"/>
	<path class="st0" d="M750.1,1274.2c-27.6-50.9-70.6-78.5-126.6-87.7c-22.2-3.7-44.5-3.2-66.9-3.9c-25-0.7-50-0.6-74.6-6.2
		c-58.1-13.4-101.4-59.1-111.4-117.8c-4.5-26.5-4.5-53.3-4-80c0.2-8.2,0.1-16.5,0.1-24.7c0-193.2,0-386.5,0-579.7
		c0-11.3,0-11.3-11.5-11.3c-24.4,0-48.9-0.2-73.3,0.1c-6.3,0.1-8.7-1.3-8.6-8.2c0.4-33.9,0.4-67.8,0-101.6c-0.1-6.8,2.1-8.6,8.6-8.3
		c9.4,0.5,18.9-0.2,28.3,0.2c6,0.3,7.4-2.1,7.4-7.7c0.3-23.3,0.5-23.3-22.6-23.3c-21.5,0-21.5,0-21.5-21.6c0-29.5,0.2-58.9-0.1-88.4
		c-0.1-6.1,1.6-8.1,7.9-8c25.6,0.3,51.3-0.1,76.9,0.3c7.2,0.1,9.1-2.1,8.8-9c-0.5-12.4,0.1-24.7-0.3-37.1c-0.2-6,2-8,7.6-7.3
		c1.4,0.2,2.9,0,4.4,0c248,0,496.1,0,744.1,0c12.7,0,11.3-1.6,11.4,11.3c0.1,11.2,0.4,22.4-0.1,33.6c-0.3,6.5,1.5,8.6,8.3,8.5
		c25-0.4,50.1,0.1,75.1-0.3c6.8-0.1,9,1.6,8.9,8.7c-0.4,33.6-0.4,67.2,0,100.7c0.1,7.4-2.5,8.9-9.1,8.6c-9.4-0.5-18.9,0-28.3-0.2
		c-4.7-0.1-6.7,1.2-6.9,6.4c-1.1,24.5-1.2,24.5,23.2,24.5c20.9,0,20.9,0,20.9,21.2c0,29.5-0.2,58.9,0.2,88.4
		c0.1,6.7-1.9,8.5-8.4,8.4c-24.7-0.4-49.5,0.2-74.2-0.4c-7.9-0.2-9.7,2.1-9.7,9.8c0.2,206.5,0.2,413,0.2,619.5
		c0,26.2,0.1,52.6-7.1,78c-16.8,59.1-54.9,96.1-115.8,107.8c-28.7,5.5-58,4.9-87.1,5.1c-27.8,0.2-55.3,2.9-81.6,12.2
		c-40.1,14.2-71.4,39.2-90.9,77.8C751.3,1273.3,750.7,1273.6,750.1,1274.2z"/>
	<path class="st1" d="M530.3,388.5c2.9-1.4,4.3,0.8,5.9,1.8c47.1,30.2,99,44.2,154.4,46.9c50.2,2.4,99.1-3.9,146.3-22.5
		c33.3-13.1,67.9-15,101.8-2.1c36.8,14,57.8,41.1,63,80.3c1.6,12.3,3.3,24.6,0.2,36.8c-3.6,14.1-14.3,20.5-28.7,17.7
		c-8.8-1.8-16.6-5.9-24.1-10.5c-12.4-7.5-24.1-15.9-35-25.3c-27-23.3-57.8-28.5-91.7-20.8c-23.6,5.4-44.9,17.7-68.6,22.6
		c-4.9,1-2.9,5.2-2.9,8c-0.1,49.5-0.1,99-0.1,148.5c0,0.6,0.1,1.2,0,1.8c-0.6,4.4,0.9,6.3,5.8,6.2c15-0.3,30-0.3,45.1,0
		c4.8,0.1,6-1.6,5.9-6.1c-0.2-14.7,0.1-29.5-0.2-44.2c-0.1-4.9,1.2-6.8,6.4-6.6c9.4,0.4,18.9,0.3,28.3,0c4.7-0.2,6,1.5,6,6.1
		c-0.1,53.3-0.1,106.6,0,160c0,4.4-1.1,6.4-5.9,6.3c-9.4-0.3-18.9-0.3-28.3,0c-5.2,0.2-6.5-1.8-6.4-6.7c0.2-15.6-0.2-31.2,0.2-46.8
		c0.1-5.8-1.5-7.6-7.4-7.4c-14.1,0.4-28.3,0.5-42.4,0c-6.2-0.2-7.1,2.2-7.1,7.6c0.2,68.6,0.1,137.3,0,205.9c0,4.3,0.7,6.7,5.4,8.3
		c21.7,7.3,41.5,17.9,58.8,33.2c5.3,4.7,11.2,8.6,16.9,12.8c13.3,9.7,27.6,12.5,43.3,6c3.5-1.4,7.2-2.5,11-3.3
		c7-1.4,13.6-1,18.3,5.4c5,6.7,5,13.9,1,20.8c-9.1,15.5-23,25.2-40,29.9c-32.7,9.1-71.6-4.4-92.6-31.4
		c-21.5-27.7-66.8-35.9-96.5-17.6c-6.3,3.9-12.4,7.8-19.9,9.3c-6.4,1.3-10.1-1.3-11.9-7.4c-1.8-6-0.5-11.7,2.1-17.1
		c4.6-9.8,11.9-17.5,20.8-23.6c10.2-7,21.2-12.6,33-16.6c13.2-4.5,13.2-4.5,13.2-18.2c0-136.4-0.1-272.8,0.2-409.2
		c0-8.7-1.9-11.6-11.2-12.6c-32.9-3.5-65.2-10.8-94.2-27.4C569.3,465.1,546.3,429.4,530.3,388.5z"/>
	<path class="st2" d="M1151.9,189.6c0,27.6-0.1,55.1-0.1,82.7c-1.9,2.8-4.9,3-7.8,3.3c-3.2,0.3-6.5,0.2-9.7,0.2
		c-256.3,0-512.6,0-769-0.1c-5.9,0-12.5,1.9-17.5-3.3c0-27.6-0.1-55.1-0.1-82.7c4.3-3.6,9.5-2.7,14.4-2.7c42.4-0.1,84.8,0,127.2,0
		c215.2,0,430.4,0,645.6,0.1C1140.6,187,1146.7,185.6,1151.9,189.6z"/>
	<path class="st3" d="M1151.9,189.6c-2.4-0.1-4.7-0.2-7.1-0.2c-263.4,0-526.8,0-790.1,0c-2.4,0-4.7,0.1-7.1,0.2
		c-13.5-0.1-27.1-0.4-40.6-0.2c-5.8,0.1-7.7-1.7-7.5-7.6c0.4-16.8,0.3-33.6,0-50.3c-0.1-5.6,1.4-8.4,7.4-7.6c1.7,0.2,3.5,0,5.3,0
		c291.7,0,583.4,0,875.1,0c14.2,0,12.5-1.5,12.6,12.8c0.1,15.3-0.1,30.6,0.1,45.9c0.1,5-1.6,6.7-6.6,6.7
		C1179.5,189.2,1165.7,189.5,1151.9,189.6z"/>
	<path class="st3" d="M347.8,272.3c3.2,0.1,6.5,0.3,9.7,0.3c261.5,0,523.1,0,784.6,0c3.2,0,6.5-0.2,9.7-0.3
		c13.8,0.1,27.7,0.4,41.5,0.2c4.8-0.1,6.8,1.4,6.7,6.5c-0.2,17.7-0.2,35.3,0,53c0,4.7-1.8,6.4-6.3,6c-1.8-0.2-3.5,0-5.3,0
		c-292.4,0-584.8,0-877.2,0c-11.5,0-11.5,0-11.5-11.3c0-15.3,0.3-30.6-0.2-45.9c-0.2-6.8,2.1-8.5,8.6-8.3
		C321.3,272.9,334.5,272.4,347.8,272.3z"/>
	<path class="st1" d="M1026,933.3c-15.6,0-31.2-0.2-46.8,0.1c-5.2,0.1-7.4-1.4-7.2-7c0.3-12.1,0.3-24.2,0-36.2
		c-0.1-5.3,1.5-7.4,7-7.1c7.9,0.4,15.9-0.1,23.8,0.2c5.2,0.2,6.9-1.4,5.6-6.6c-3-12.3-6-24.6-8.4-37c-0.9-4.4-3.1-4.9-6.8-4.9
		c-30.3,0.1-60.7,0.1-91,0c-4,0-5.8,1.3-6.6,5.2c-2.6,12.4-5.4,24.7-8.4,37c-1.1,4.7,0.1,6.4,5,6.3c8.2-0.3,16.5,0.1,24.7-0.1
		c4.7-0.1,7,0.9,6.8,6.2c-0.3,12.9-0.3,25.9,0,38.9c0.1,4.7-1.5,6-6.1,6.1c-31.2,0.3-62.4,0.7-93.6,1.3c-4.9,0.1-6.8-1.2-6.6-6.4
		c0.3-13.2,0.3-26.5,0-39.8c-0.1-5.3,2-6.3,6.7-6.4c7.3-0.1,16.5,3.3,21.2-1.5c4.8-4.9,5.4-13.9,7.6-21.2
		c27.9-94.1,55.8-188.2,83.5-282.4c1.9-6.4,4.7-8.1,11-8c20.3,0.3,20.3,0,25.4,19.8c24.4,94.8,48.9,189.5,72.9,284.4
		c1.9,7.7,5.3,9.4,12.6,9.3c21-0.4,21-0.1,21,20.9c0,7.1-0.5,14.2,0.1,21.2c0.7,7.1-2.4,8.3-8.6,8.1C1056,933,1041,933.3,1026,933.3
		z"/>
	<path class="st1" d="M472.9,935.4c-15.6,0-31.2-0.2-46.8,0.1c-4.6,0.1-6.1-1.4-6.1-6c0.2-13.5,0.3-27.1,0-40.6
		c-0.1-4.9,1.9-5.7,6.3-5.9c7.5-0.3,17,3.4,22-1.8c4.7-4.9,5.2-14,7.4-21.3c27.8-93.8,55.7-187.6,83.3-281.5
		c1.9-6.4,4.7-8.7,11.5-8.6c20,0.4,20,0.1,25.1,20.2c24.4,94.8,48.8,189.5,73,284.4c1.8,7.1,4.7,9.1,11.9,9
		c21.5-0.5,21.7-0.1,21.4,21.3c-0.1,9.3,4.1,21.3-1.8,27.1c-5.5,5.4-17.4,1.5-26.5,1.5c-23.6,0.2-47.1-0.1-70.7,0.2
		c-6.1,0.1-8.2-1.7-8-8c0.4-12.1,0.3-24.1,0.1-36.2c-0.1-4.5,1.5-6.3,6.1-6.2c8.5,0.2,17.1-0.1,25.6,0.1c4.6,0.2,5.5-1.5,4.5-5.7
		c-3-12.6-6-25.2-8.6-37.8c-0.9-4.3-3-4.9-6.7-4.9c-30.3,0.1-60.7,0.1-91,0c-4,0-5.8,1.5-6.7,5.2c-2.8,12.6-5.5,25.3-8.6,37.8
		c-1.2,4.9,0.9,5.5,4.9,5.4c8.5-0.1,17.1,0.2,25.6-0.1c4.6-0.2,6.2,1.3,6.1,6c-0.3,13-0.3,25.9,0,38.9c0.1,5.2-1.9,6.4-6.6,6.3
		c-15.6-0.2-31.2-0.1-46.8-0.1C472.9,934.5,472.9,935,472.9,935.4z"/>
	<path class="st0" d="M953.3,647.7c10.8,46.1,21.2,90.9,31.8,135.7c1.4,5.7-0.1,7.2-5.8,7.1c-20-0.2-40-0.1-60,0.2
		c-4.7,0.1-7.1-0.4-5.4-6.2c12.6-44.3,25-88.7,37.5-133C951.7,650.6,952.2,649.9,953.3,647.7z"/>
	<path class="st0" d="M556.1,648.7c7.7,32.9,15.4,65.7,23.1,98.6c2.8,12,5.5,24,8.5,36c1.3,5.3,0.2,7.3-5.8,7.3
		c-20.3-0.2-40.6-0.1-60.9,0.2c-5.1,0.1-5.8-1.3-4.5-6.1c12.8-45.2,25.4-90.4,38.1-135.7C555.2,648.9,555.6,648.8,556.1,648.7z"/>
</g>
</svg>
